<svg xmlns="http://www.w3.org/2000/svg" viewBox="0 0 48 48" width="48" height="48">
  <rect x="8" y="36" width="32" height="4" rx="1" fill="#9A3412"/>
  <rect x="10" y="18" width="10" height="18" rx="1.5" fill="#F59E0B"/>
  <rect x="12" y="21" width="2.5" height="2.5" rx=".5" fill="#FEF3C7"/>
  <rect x="12" y="26" width="2.5" height="2.5" rx=".5" fill="#FEF3C7"/>
  <rect x="19" y="10" width="12" height="26" rx="1.5" fill="#DC2626"/>
  <rect x="21.5" y="14" width="2.5" height="2.5" rx=".5" fill="#FECACA"/>
  <rect x="21.5" y="19" width="2.5" height="2.5" rx=".5" fill="#FECACA"/>
  <rect x="21.5" y="24" width="2.5" height="2.5" rx=".5" fill="#FECACA"/>
  <rect x="21.5" y="29" width="2.5" height="2.5" rx=".5" fill="#FECACA"/>
  <rect x="30" y="16" width="10" height="20" rx="1.5" fill="#B91C1C"/>
  <rect x="32" y="20" width="2.5" height="2.5" rx=".5" fill="#FECACA"/>
  <rect x="32" y="25" width="2.5" height="2.5" rx=".5" fill="#FECACA"/>
  <rect x="32" y="30" width="2.5" height="2.5" rx=".5" fill="#FECACA"/>
  <circle cx="38" cy="12" r="6" fill="#FBBF24"/>
  <path d="M38 9v6M35 12h6" stroke="#92400E" stroke-width="2" stroke-linecap="round"/>
</svg>
