<svg xmlns="http://www.w3.org/2000/svg" viewBox="0 0 48 48" width="48" height="48"><rect x="7" y="35" width="34" height="4" rx="1" fill="#94A3B8"/><rect x="9" y="20" width="9" height="15" rx="1.5" fill="#60A5FA"/><rect x="11" y="23" width="2.5" height="2.5" rx=".5" fill="#DBEAFE"/><rect x="11" y="28" width="2.5" height="2.5" rx=".5" fill="#DBEAFE"/><rect x="19" y="11" width="10" height="24" rx="1.5" fill="#2563EB"/><rect x="21.5" y="14" width="2.5" height="2.5" rx=".5" fill="#DBEAFE"/><rect x="21.5" y="19" width="2.5" height="2.5" rx=".5" fill="#DBEAFE"/><rect x="21.5" y="24" width="2.5" height="2.5" rx=".5" fill="#DBEAFE"/><rect x="21.5" y="29" width="2.5" height="2.5" rx=".5" fill="#DBEAFE"/><rect x="30" y="17" width="9" height="18" rx="1.5" fill="#3B82F6"/><rect x="32" y="20" width="2.5" height="2.5" rx=".5" fill="#DBEAFE"/><rect x="32" y="25" width="2.5" height="2.5" rx=".5" fill="#DBEAFE"/><rect x="32" y="30" width="2.5" height="2.5" rx=".5" fill="#DBEAFE"/></svg>
